<svg xmlns="http://www.w3.org/2000/svg" viewBox="0 0 512 512">
  <defs>
    <linearGradient id="bg" x1="0" y1="0" x2="512" y2="512" gradientUnits="userSpaceOnUse">
      <stop offset="0" stop-color="#13192C"/>
      <stop offset="1" stop-color="#070B16"/>
    </linearGradient>
    <radialGradient id="glow" cx="0.25" cy="0.1" r="0.85">
      <stop offset="0" stop-color="#D4B888" stop-opacity="0.30"/>
      <stop offset="0.7" stop-color="#D4B888" stop-opacity="0"/>
    </radialGradient>
    <linearGradient id="capLeft" x1="0" y1="-1" x2="0" y2="1">
      <stop offset="0" stop-color="#F3DDB1"/>
      <stop offset="1" stop-color="#C9A876"/>
    </linearGradient>
    <linearGradient id="capRight" x1="0" y1="-1" x2="0" y2="1">
      <stop offset="0" stop-color="#465272"/>
      <stop offset="1" stop-color="#1B233B"/>
    </linearGradient>
    <filter id="soft" x="-20%" y="-20%" width="140%" height="140%">
      <feGaussianBlur stdDeviation="6"/>
    </filter>
  </defs>

  <rect width="512" height="512" rx="112" fill="url(#bg)"/>
  <rect width="512" height="512" rx="112" fill="url(#glow)"/>
  <rect x="2" y="2" width="508" height="508" rx="110" fill="none" stroke="rgba(212,184,136,0.20)" stroke-width="1.2"/>

  <ellipse cx="256" cy="378" rx="160" ry="14" fill="rgba(0,0,0,0.55)" filter="url(#soft)"/>

  <g transform="translate(256 256) rotate(-28)">
    <path d="M -150 -50 a 50 50 0 0 1 50 -50 H 0 V 50 H -100 a 50 50 0 0 1 -50 -50 z" fill="url(#capLeft)"/>
    <path d="M 0 -50 H 100 a 50 50 0 0 1 50 50 a 50 50 0 0 1 -50 50 H 0 z" fill="url(#capRight)"/>
    <line x1="0" y1="-49" x2="0" y2="49" stroke="rgba(0,0,0,0.20)" stroke-width="1.5"/>
    <path d="M -132 -28 a 38 38 0 0 1 32 -36 H -10" fill="none" stroke="rgba(255,255,255,0.50)" stroke-width="2.5" stroke-linecap="round"/>
    <path d="M 14 -36 H 96 a 38 38 0 0 1 30 14" fill="none" stroke="rgba(255,255,255,0.18)" stroke-width="2" stroke-linecap="round"/>
    <circle cx="-78" cy="0" r="6" fill="#8DD4B5"/>
    <circle cx="-78" cy="0" r="11" fill="none" stroke="#8DD4B5" stroke-width="1" opacity="0.4"/>
  </g>

  <rect x="14" y="14" width="484" height="484" rx="100" fill="none" stroke="rgba(255,255,255,0.04)" stroke-width="1"/>
</svg>
